<svg width="166" height="144" viewBox="0 0 166 144" fill="none" xmlns="http://www.w3.org/2000/svg">
<path d="M32.5426 2.33444C32.8442 2.27554 33.1798 2.21449 33.5474 2.1534C33.2053 2.21231 32.8697 2.27336 32.5426 2.33444Z" fill="url(#paint0_radial_19_640)"/>
<path d="M127.002 144H34.5327C45.7066 96.4661 50.6095 59.8362 51.2616 5.97121C54.9898 5.75741 59.0366 5.63523 63.4233 5.63523C63.4488 5.63523 63.4743 5.63523 63.5019 5.63523C63.5274 5.63523 63.5571 5.63523 63.5826 5.63523C85.4247 5.63523 98.8333 8.67423 106.447 10.8908C106.687 59.2864 111.543 90.447 123.414 131.853C123.471 132.051 123.526 132.243 123.581 132.442C123.639 132.636 123.696 132.839 123.754 133.033C123.811 133.234 123.866 133.428 123.926 133.628C123.983 133.827 124.042 134.032 124.1 134.231C124.159 134.436 124.217 134.634 124.276 134.839C124.336 135.047 124.397 135.252 124.457 135.457C124.518 135.666 124.58 135.876 124.639 136.085C124.703 136.297 124.767 136.513 124.828 136.724C124.892 136.942 124.958 137.163 125.022 137.381C125.09 137.61 125.156 137.832 125.221 138.062C125.292 138.295 125.364 138.535 125.432 138.771C125.508 139.024 125.583 139.275 125.657 139.528C125.742 139.807 125.825 140.084 125.908 140.365C126.007 140.697 126.107 141.033 126.207 141.367C126.379 141.941 126.553 142.516 126.728 143.095C126.819 143.396 126.91 143.697 127.002 144ZM14.5536 144H0C0.376002 142.759 0.747805 141.528 1.11319 140.309C1.27888 139.75 1.44242 139.2 1.60599 138.646C1.73132 138.223 1.85878 137.8 1.98199 137.379C2.08821 137.014 2.19442 136.654 2.30064 136.294C2.39623 135.967 2.49185 135.644 2.58744 135.319C15.1867 92.1617 20.3105 60.6259 20.5548 10.8908C23.5713 10.0138 27.4971 9.00585 32.4977 8.10919C31.939 61.1473 26.8555 96.7367 14.5536 144ZM61.8598 0.00436757C62.2358 0.00218591 62.6139 0 62.9984 0C63.1641 0 63.3341 2.13056e-06 63.5019 0.00218378C63.3723 0.00218378 63.2448 0.00218378 63.1174 0.00218378C62.6925 0.00218378 62.2762 0.00218591 61.8598 0.00436757ZM65.1291 0.00436757C64.7191 0.00218591 64.3049 0.00218378 63.8885 0.00218378C63.7589 0.00218378 63.6315 0.00218378 63.5019 0.00218378C63.6697 2.13056e-06 63.8375 0 64.0053 0C64.3813 0 64.7573 0.00218591 65.1291 0.00436757Z" fill="url(#paint1_linear_19_640)"/>
<path d="M106.895 10.9738C106.791 10.9738 106.685 10.9586 106.581 10.9302C106.536 10.9171 106.491 10.9039 106.447 10.8908C98.8333 8.67423 85.4247 5.63523 63.5826 5.63523C63.5571 5.63523 63.5274 5.63523 63.5019 5.63523C63.4743 5.63523 63.4488 5.63523 63.4233 5.63523C59.0366 5.63523 54.9898 5.75741 51.2616 5.97121C51.285 4.09717 51.3023 2.20357 51.315 0.285894C54.5333 0.12227 58.0446 0.0218208 61.8598 0.00436757C62.2762 0.00218591 62.6925 0.00218378 63.1174 0.00218378C63.2448 0.00218378 63.3723 0.00218378 63.5019 0.00218378C63.6315 0.00218378 63.7589 0.00218378 63.8885 0.00218378C64.3049 0.00218378 64.7191 0.00218591 65.1291 0.00436757C92.7939 0.133085 104.227 4.56849 107.095 6.00184C107.562 6.23091 107.855 6.66942 107.857 7.14284C107.862 8.13549 107.868 9.11724 107.879 10.0881C107.881 10.3739 107.732 10.64 107.475 10.8058C107.305 10.9171 107.101 10.9738 106.895 10.9738ZM20.1065 10.9738C19.9005 10.9738 19.6965 10.9171 19.5287 10.8058C19.2717 10.6422 19.1208 10.3739 19.1251 10.0881C19.1357 9.11724 19.1421 8.13549 19.1463 7.14284C19.1463 6.66942 19.4416 6.23091 19.909 6.00184C21.4087 5.25353 25.2541 3.68052 32.5426 2.33444C32.5404 2.33444 32.5401 2.33447 32.5401 2.33447C32.5316 4.28269 32.5168 6.20897 32.4977 8.10919C27.4971 9.00585 23.5713 10.0138 20.5548 10.8908C20.5102 10.9039 20.4655 10.9171 20.4209 10.9302C20.3189 10.9586 20.2127 10.9738 20.1065 10.9738ZM33.5474 2.1534C38.1231 1.35492 43.9628 0.656775 51.3108 0.285894C44.4726 0.680773 37.3456 1.512 33.5474 2.1534Z" fill="url(#paint2_linear_19_640)"/>
<path d="M32.5426 2.33444C32.8442 2.27554 33.1798 2.21449 33.5474 2.1534C33.2053 2.21231 32.8697 2.27336 32.5426 2.33444Z" fill="url(#paint3_radial_19_640)"/>
<path d="M34.5327 144H14.5536C26.8555 96.7367 31.939 61.1473 32.4977 8.10919C37.5833 7.19726 43.7798 6.40099 51.2616 5.97121C50.6095 59.8362 45.7066 96.4661 34.5327 144Z" fill="url(#paint4_linear_19_640)"/>
<path d="M32.4977 8.10919C32.5168 6.20897 32.5316 4.28269 32.5401 2.33447C32.5401 2.33447 32.5404 2.33444 32.5426 2.33444C32.8697 2.27336 33.2053 2.21231 33.5474 2.1534C37.3456 1.512 44.4726 0.680773 51.3108 0.285894C51.3129 0.285894 51.3129 0.285894 51.315 0.285894C51.3023 2.20357 51.285 4.09717 51.2616 5.97121C43.7798 6.40099 37.5833 7.19726 32.4977 8.10919Z" fill="url(#paint5_linear_19_640)"/>
<path d="M66.8332 144V97.2254H164.872V144H66.8332Z" fill="#63696B"/>
<path d="M65.7051 97.2254V93.2591H166V97.2254H65.7051Z" fill="url(#paint6_linear_19_640)"/>
<path d="M66.8351 122.249H164.872V108.049H66.8351V122.249Z" fill="url(#paint7_linear_19_640)"/>
<path d="M96.8984 111.653H69.1359V118.645H96.8984V111.653Z" fill="url(#paint8_linear_19_640)"/>
<path d="M129.118 111.653H101.353V118.645H129.118V111.653Z" fill="url(#paint9_linear_19_640)"/>
<path d="M161.333 111.653H133.566V118.645H161.333V111.653Z" fill="url(#paint10_linear_19_640)"/>
<path d="M63.5019 57.48C66.0554 57.48 68.1244 55.3551 68.1244 52.7328C68.1244 50.1104 66.0554 47.9833 63.5019 47.9833C60.9485 47.9833 58.8773 50.1104 58.8773 52.7328C58.8773 55.3551 60.9485 57.48 63.5019 57.48ZM40.2005 51.0049L58.1635 51.7772C58.2698 51.1489 58.4758 50.5293 58.8051 49.9468C59.1322 49.3643 59.5507 48.8712 60.0266 48.4633L50.3907 32.8666C44.636 36.8787 40.7252 43.4607 40.2005 51.0049ZM68.1988 49.9468C68.5259 50.5293 68.732 51.1489 68.8382 51.7772L86.8013 51.0049C86.2787 43.4607 82.3658 36.8787 76.611 32.8666L66.9752 48.4633C67.451 48.8712 67.8716 49.3643 68.1988 49.9468ZM63.5019 58.3025C62.8455 58.3025 62.221 58.176 61.6389 57.9556L53.3032 74.3268C56.3855 75.8648 59.8439 76.7309 63.5019 76.7309C67.1579 76.7309 70.6184 75.8648 73.7007 74.3268L65.365 57.9556C64.7829 58.176 64.1562 58.3025 63.5019 58.3025ZM87.668 52.7328C87.668 39.0451 76.8277 27.9121 63.5019 27.9121C50.1741 27.9121 39.3337 39.0451 39.3337 52.7328C39.3337 66.4183 50.1741 77.5513 63.5019 77.5513C76.8277 77.5513 87.668 66.4183 87.668 52.7328ZM63.5019 80.839C48.4109 80.839 36.1324 68.2312 36.1324 52.7328C36.1324 37.2343 48.4109 24.6243 63.5019 24.6243C78.593 24.6243 90.8693 37.2343 90.8693 52.7328C90.8693 68.2312 78.593 80.839 63.5019 80.839Z" fill="url(#paint11_radial_19_640)"/>
<defs>
<radialGradient id="paint0_radial_19_640" cx="0" cy="0" r="1" gradientUnits="userSpaceOnUse" gradientTransform="translate(-590.439 1562.84) scale(4552.37 37164.7)">
<stop stop-color="#FFFFF7"/>
<stop offset="1" stop-color="#FEFEEC"/>
</radialGradient>
<linearGradient id="paint1_linear_19_640" x1="0" y1="71.9989" x2="166" y2="71.9989" gradientUnits="userSpaceOnUse">
<stop stop-color="#9D9FA1"/>
<stop offset="0.5" stop-color="#FCFCFC"/>
<stop offset="1" stop-color="#8D8F93"/>
</linearGradient>
<linearGradient id="paint2_linear_19_640" x1="0.000163517" y1="72.0143" x2="166" y2="72.0143" gradientUnits="userSpaceOnUse">
<stop stop-color="#EF3320"/>
<stop offset="0.5" stop-color="#F57F52"/>
<stop offset="1" stop-color="#EF3320"/>
</linearGradient>
<radialGradient id="paint3_radial_19_640" cx="0" cy="0" r="1" gradientUnits="userSpaceOnUse" gradientTransform="translate(-590.439 1562.84) scale(4552.37 37164.7)">
<stop stop-color="#FFFFF7"/>
<stop offset="1" stop-color="#FEFEEC"/>
</radialGradient>
<linearGradient id="paint4_linear_19_640" x1="-65.814" y1="75.1136" x2="508.509" y2="75.1136" gradientUnits="userSpaceOnUse">
<stop stop-color="#D0D0D1"/>
<stop offset="0.5" stop-color="#FEFFFF"/>
<stop offset="1" stop-color="#C6C6C5"/>
</linearGradient>
<linearGradient id="paint5_linear_19_640" x1="-117.969" y1="48.2677" x2="664.991" y2="48.2677" gradientUnits="userSpaceOnUse">
<stop stop-color="#F6856E"/>
<stop offset="0.5" stop-color="#FABCA4"/>
<stop offset="1" stop-color="#F6856E"/>
</linearGradient>
<linearGradient id="paint6_linear_19_640" x1="0" y1="72" x2="166.002" y2="72" gradientUnits="userSpaceOnUse">
<stop stop-color="#EF3320"/>
<stop offset="0.5" stop-color="#F57F52"/>
<stop offset="1" stop-color="#EF3320"/>
</linearGradient>
<linearGradient id="paint7_linear_19_640" x1="0" y1="72.0111" x2="165.999" y2="72.0111" gradientUnits="userSpaceOnUse">
<stop stop-color="#EF3320"/>
<stop offset="0.5" stop-color="#F57F52"/>
<stop offset="1" stop-color="#EF3320"/>
</linearGradient>
<linearGradient id="paint8_linear_19_640" x1="82.9936" y1="0" x2="82.9936" y2="144.015" gradientUnits="userSpaceOnUse">
<stop stop-color="#A1C9EA"/>
<stop offset="0.617347" stop-color="#A1C9EA"/>
<stop offset="1" stop-color="#436288"/>
</linearGradient>
<linearGradient id="paint9_linear_19_640" x1="83" y1="0" x2="83" y2="144.015" gradientUnits="userSpaceOnUse">
<stop stop-color="#A1C9EA"/>
<stop offset="0.617347" stop-color="#A1C9EA"/>
<stop offset="1" stop-color="#436288"/>
</linearGradient>
<linearGradient id="paint10_linear_19_640" x1="83.0064" y1="0" x2="83.0064" y2="144.015" gradientUnits="userSpaceOnUse">
<stop stop-color="#A1C9EA"/>
<stop offset="0.617347" stop-color="#A1C9EA"/>
<stop offset="1" stop-color="#436288"/>
</linearGradient>
<radialGradient id="paint11_radial_19_640" cx="0" cy="0" r="1" gradientUnits="userSpaceOnUse" gradientTransform="translate(63.5019 52.7328) scale(27.3687 28.1075)">
<stop stop-color="#6F727B"/>
<stop offset="1" stop-color="#53565B"/>
</radialGradient>
</defs>
</svg>
